<svg width="24" height="24" viewBox="0 0 24 24" fill="none" xmlns="http://www.w3.org/2000/svg">
<path d="M12 20.0033C14.9314 20.0035 17.6284 18.4012 19.0299 15.8265" stroke="#666666" stroke-width="1.5" stroke-linecap="round" stroke-linejoin="round"/>
<path d="M20.0033 12C20.0033 7.57992 16.4201 3.9967 12 3.9967" stroke="#666666" stroke-width="1.5" stroke-linecap="round" stroke-linejoin="round"/>
<path d="M12.0001 3.9967C9.06875 3.99646 6.37178 5.59883 4.97021 8.17344" stroke="#666666" stroke-width="1.5" stroke-linecap="round" stroke-linejoin="round"/>
<path d="M3.99658 12C3.99658 16.4201 7.5798 20.0033 11.9999 20.0033" stroke="#666666" stroke-width="1.5" stroke-linecap="round" stroke-linejoin="round"/>
<path d="M4.97021 8.17335C6.71968 4.95833 10.4273 3.33982 13.9744 4.2427C17.5215 5.14558 20.004 8.33975 20.0035 11.9999" stroke="#666666" stroke-width="1.5" stroke-linecap="round" stroke-linejoin="round"/>
<path d="M3.99658 12C3.99602 15.6602 6.4786 18.8544 10.0257 19.7572C13.5728 20.6601 17.2804 19.0416 19.0298 15.8266" stroke="#666666" stroke-width="1.5" stroke-linecap="round" stroke-linejoin="round"/>
<path d="M8.04526 8.17346H4.50879V4.63599" stroke="#666666" stroke-width="1.5" stroke-linecap="round" stroke-linejoin="round"/>
<path d="M15.9546 15.8265H19.4911V19.364" stroke="#666666" stroke-width="1.5" stroke-linecap="round" stroke-linejoin="round"/>
</svg>
